<svg xmlns="http://www.w3.org/2000/svg" width="373" height="336" viewBox="0 0 373 336">
<g>
<path d="M 12.64 319.21 C12.26,318.59 15.13,299.44 16.51,293.31 L 17.01 291.11 L 118.25 290.78 C218.37,290.44 219.60,290.42 228.10,288.26 C239.56,285.36 245.17,283.07 254.25,277.55 C263.65,271.85 270.50,265.76 276.59,257.70 C282.08,250.43 288.80,237.09 289.65,231.75 L 290.26 228.00 L 313.13 227.83 C325.71,227.74 336.79,227.63 337.75,227.58 C340.43,227.46 340.37,230.60 337.47,243.64 C333.21,262.74 325.49,277.37 313.44,289.14 C297.16,305.05 272.78,316.09 247.50,318.97 C237.28,320.14 13.34,320.37 12.64,319.21 ZM 19.57 284.16 C18.22,283.90 17.94,283.19 18.38,281.16 C18.69,279.70 19.67,274.00 20.55,268.50 C21.43,263.00 24.25,246.35 26.83,231.50 L 31.50 204.50 L 110.99 204.00 L 190.48 203.50 L 191.79 196.00 C192.50,191.88 195.11,177.62 197.58,164.32 C200.06,151.02 202.35,137.85 202.68,135.05 L 203.28 129.95 L 125.89 130.01 C52.23,130.06 48.51,129.98 48.64,128.28 C48.71,127.30 49.36,123.02 50.06,118.77 L 51.35 111.03 L 75.90 110.77 L 100.44 110.50 L 102.56 102.50 C107.75,82.89 118.21,71.61 137.00,65.36 C142.14,63.65 148.55,63.51 235.69,63.23 L 328.87 62.93 L 329.91 57.72 C330.48,54.85 332.33,44.85 334.03,35.50 C335.72,26.15 337.65,15.80 338.30,12.50 L 339.50 6.50 L 348.91 6.21 C354.09,6.05 358.70,6.30 359.17,6.77 C359.63,7.23 358.91,13.66 357.56,21.06 C356.20,28.45 353.26,44.83 351.01,57.45 C348.77,70.08 346.78,80.56 346.59,80.74 C346.41,80.93 303.92,81.06 252.17,81.04 C156.11,80.99 147.68,81.28 139.56,84.87 C130.77,88.76 123.89,97.60 122.40,106.92 L 121.74 111.00 L 214.21 111.00 C303.63,111.00 306.94,111.07 314.56,113.01 C324.30,115.51 334.50,121.43 339.92,127.75 C342.16,130.36 345.46,135.88 347.25,140.00 C350.45,147.37 350.50,147.74 350.33,161.50 C350.19,173.33 349.49,179.06 345.83,198.50 L 341.50 221.50 L 313.88 221.77 L 286.25 222.03 L 284.98 226.77 C281.26,240.60 270.87,256.87 259.95,265.96 C253.19,271.59 238.67,279.01 229.50,281.52 C225.92,282.50 218.07,283.35 210.00,283.61 C193.63,284.15 22.07,284.64 19.57,284.16 ZM 226.38 263.70 C237.82,260.13 243.08,257.04 250.65,249.40 C256.89,243.10 263.33,231.96 264.63,225.25 L 265.25 221.99 L 156.90 222.25 L 48.54 222.50 L 45.35 242.00 C43.59,252.73 42.12,262.76 42.08,264.29 L 42.00 267.08 L 129.75 266.78 L 217.50 266.47 L 226.38 263.70 ZM 326.70 186.00 C331.72,158.81 330.88,150.06 322.39,140.98 C317.03,135.26 310.57,132.28 300.75,131.00 C291.63,129.82 225.31,129.70 224.58,130.86 C223.87,132.02 212.00,199.55 212.00,202.46 C212.00,203.85 217.78,203.99 267.74,203.76 L 323.48 203.50 L 326.70 186.00 ZM 76.89 163.24 C54.59,139.10 53.03,137.31 53.69,136.64 C54.05,136.29 86.21,136.00 125.17,136.00 C181.18,136.00 196.00,136.26 195.98,137.25 C195.93,140.74 192.00,162.39 191.30,163.00 C190.86,163.39 179.70,165.15 166.50,166.92 C153.30,168.68 130.93,171.90 116.79,174.06 C102.65,176.23 90.95,178.00 90.79,177.99 C90.63,177.98 84.37,171.35 76.89,163.24 ZM 53.83 103.90 C52.93,103.34 53.44,97.87 55.96,81.33 C61.40,45.65 65.70,34.24 78.12,22.52 C88.27,12.95 96.55,9.20 112.32,7.06 C122.55,5.67 330.62,5.58 331.48,6.96 C331.80,7.49 331.15,13.01 330.02,19.21 C328.90,25.42 326.93,36.35 325.65,43.50 L 323.33 56.50 L 231.92 57.04 C149.50,57.52 139.93,57.74 134.70,59.29 C115.83,64.86 101.00,80.23 96.93,98.41 C95.92,102.92 95.28,103.96 93.19,104.49 C89.78,105.34 55.34,104.83 53.83,103.90 Z" fill="#FFFFFF"/>
</g>
</svg>
